<svg width="10" height="16" viewBox="0 0 10 16" fill="none" xmlns="http://www.w3.org/2000/svg">
<path d="M9.23828 7.64063C9.34245 7.74479 9.39453 7.86459 9.39453 8C9.39453 8.13542 9.34245 8.25521 9.23828 8.35938L1.95703 15.6406C1.85286 15.7448 1.73307 15.7969 1.59766 15.7969C1.46224 15.7969 1.34245 15.7448 1.23828 15.6406L0.457031 14.8594C0.352865 14.7552 0.300781 14.6354 0.300781 14.5C0.300781 14.3646 0.352865 14.2448 0.457031 14.1406L6.59766 8L0.457031 1.85938C0.352865 1.75521 0.300781 1.63542 0.300781 1.5C0.300781 1.36458 0.352865 1.24479 0.457031 1.14063L1.23828 0.359376C1.34245 0.255209 1.46224 0.203125 1.59766 0.203125C1.73307 0.203125 1.85286 0.255209 1.95703 0.359376L9.23828 7.64063Z" fill="white"/>
</svg>
